<svg width="79" height="42" fill="none" xmlns="http://www.w3.org/2000/svg"><path d="M35.209 31.429c0 .992-.364 1.736-1.073 2.27-.728.535-1.762.783-3.103.783-1.341 0-2.433-.21-3.257-.61V32.02c1.188.554 2.3.82 3.334.82 1.321 0 1.992-.4 1.992-1.201 0-.249-.077-.478-.21-.65-.154-.171-.384-.343-.729-.534-.345-.19-.804-.381-1.398-.61-1.169-.458-1.954-.897-2.376-1.355-.421-.458-.613-1.03-.613-1.756 0-.858.345-1.526 1.054-2.003.69-.477 1.647-.725 2.854-.725 1.188 0 2.318.248 3.372.725l-.69 1.622c-1.092-.458-2.011-.668-2.758-.668-1.13 0-1.705.324-1.705.973 0 .324.153.592.44.801.288.21.939.516 1.935.897.843.325 1.437.611 1.82.878s.651.573.843.935c.172.363.268.783.268 1.26zM39.27 21.544c0-.382.096-.687.307-.878.21-.21.517-.305.9-.305s.67.095.881.305c.21.21.326.496.326.878 0 .362-.115.649-.326.858-.21.21-.498.325-.881.325s-.69-.096-.9-.325c-.192-.21-.307-.496-.307-.858zM41.57 34.31h-2.146V24.215h2.146V34.31zM49.94 34.5c-1.264 0-2.26-.457-2.97-1.373-.708-.916-1.072-2.195-1.072-3.836 0-1.66.364-2.938 1.073-3.873.709-.916 1.705-1.374 2.988-1.374 1.341 0 2.337.496 3.046 1.47h.115c-.096-.726-.153-1.299-.153-1.718v-3.683h2.164V34.31h-1.685l-.383-1.317h-.096c-.69.993-1.705 1.508-3.027 1.508zm.575-1.736c.88 0 1.532-.248 1.935-.744.402-.496.612-1.297.632-2.423v-.306c0-1.278-.211-2.175-.633-2.71-.42-.534-1.072-.8-1.953-.8-.767 0-1.341.305-1.744.915-.402.61-.613 1.489-.613 2.614 0 1.126.192 1.966.594 2.558.383.591.977.896 1.782.896zM64.518 34.501c-1.57 0-2.816-.458-3.697-1.374-.881-.916-1.341-2.175-1.341-3.778 0-1.641.421-2.939 1.245-3.893.824-.935 1.954-1.412 3.39-1.412 1.342 0 2.395.4 3.18 1.221.786.802 1.17 1.927 1.17 3.34v1.164h-6.763c.038.973.287 1.736.805 2.251.498.535 1.206.783 2.107.783.594 0 1.15-.058 1.666-.172a10.011 10.011 0 001.667-.553v1.736a7.428 7.428 0 01-1.59.534c-.536.096-1.15.153-1.839.153zm-.402-8.854c-.69 0-1.226.21-1.648.649-.421.439-.651 1.068-.747 1.889h4.598c-.02-.84-.211-1.47-.613-1.89-.364-.42-.9-.648-1.59-.648zM77.927 24.025c.44 0 .786.038 1.073.095l-.21 2.004a3.988 3.988 0 00-.959-.115c-.862 0-1.551.286-2.088.84-.536.553-.804 1.278-.804 2.175v5.286h-2.146V24.216h1.686l.287 1.774h.115c.345-.61.767-1.088 1.322-1.431a3.067 3.067 0 011.724-.534z" fill="#293343"/><path d="M8.697.992c0 .554-.44.993-.996.993a.987.987 0 01-.996-.993A1 1 0 017.7 0c.555 0 .996.439.996.992zM8.314 9.217c0 .782-.632 1.431-1.437 1.431a1.432 1.432 0 110-2.862c.805 0 1.437.63 1.437 1.43zM11.455 5.457c0 .611-.517 1.107-1.13 1.088A1.098 1.098 0 019.233 5.42c0-.61.517-1.106 1.13-1.087.613.019 1.092.515 1.092 1.125z" fill="#E05B48"/><path d="M12.681 13.262c0-.343-.344-.649-.785-.649h-7.28c-.44 0-.785.287-.785.65v2.136h8.831v-2.137h.02zM14.31 17.555l-3.602-.019-6.494 21.792H2.663v-19.14H6.57c.728 0 1.321-.59 1.321-1.316 0-.725-.594-1.317-1.321-1.317H2.605A2.575 2.575 0 000 20.132v19.273A2.603 2.603 0 002.605 42h3.2l6.493-21.792h1.858v19.14h-4.31c-.728 0-1.322.591-1.322 1.316 0 .725.594 1.317 1.322 1.317h4.368a2.603 2.603 0 002.605-2.595V20.113c0-1.374-1.13-2.52-2.51-2.558z" fill="#293343"/></svg>