<svg width="26" height="48" viewBox="0 0 26 48" fill="none" xmlns="http://www.w3.org/2000/svg">
<path d="M8.63371 25.1913C3.48502 26.5906 11.7656 29.4811 18.3206 26.7489C17.2472 26.3432 16.4771 25.8743 16.4771 25.8743C13.5539 26.4118 12.1982 26.4542 9.54478 26.1595C7.35472 25.9156 8.63371 25.1913 8.63371 25.1913ZM17.5357 22.4614C13.6617 23.1868 11.4238 23.1637 8.58894 22.8792C6.39732 22.6588 7.83205 21.625 7.83205 21.625C2.16203 23.4561 10.9881 25.5334 18.9124 23.2785C18.0706 22.9902 17.5357 22.4614 17.5357 22.4614ZM20.5722 6.65418C20.5722 6.65418 9.11027 9.43866 14.5841 15.5754C16.2002 17.3853 14.1605 19.0125 14.1605 19.0125C14.1605 19.0125 18.2614 16.9531 16.3782 14.3731C14.6191 11.9682 13.2704 10.7739 20.5722 6.65418ZM2.35943 30.3004C15.7233 32.4076 26.7195 29.3512 23.254 27.8296C23.254 27.8296 24.2005 28.5891 22.2109 29.1762C18.4285 30.291 6.46429 30.6273 3.14123 29.2205C1.9475 28.7148 4.1874 28.0133 4.89172 27.866C5.62642 27.711 6.04613 27.7395 6.04613 27.7395C4.71769 26.8288 -2.54086 29.5266 2.35943 30.3004ZM18.6605 19.9141C19.3029 19.4875 20.1906 19.1171 20.1906 19.1171C20.1906 19.1171 17.663 19.5569 15.1443 19.7625C12.0615 20.0141 8.75441 20.0637 7.09424 19.8478C3.16381 19.3364 9.24888 17.93 9.24888 17.93C9.24888 17.93 6.88556 17.7743 3.97988 19.1417C0.543135 20.7588 12.48 21.4955 18.6605 19.9141ZM20.1653 23.8656C20.1365 23.9413 20.0399 24.0266 20.0399 24.0266C28.4288 21.8811 25.3444 16.4641 21.3334 17.8353C20.9818 17.9561 20.7968 18.2379 20.7968 18.2379C20.7968 18.2379 21.0191 18.1508 21.5152 18.05C23.5425 17.6394 26.4478 20.691 20.1653 23.8656ZM13.0765 17.8713C11.8388 15.1493 7.64244 12.7686 13.0785 8.59168C19.857 3.38637 16.3786 1.37272e-08 16.3786 1.37272e-08C17.7818 5.37766 11.4296 7.00229 9.13675 10.3515C7.57548 12.6334 9.90337 15.086 13.0765 17.8713ZM20.3923 31.3754C15.2456 32.3179 8.8973 32.2084 5.13351 31.6039C5.13351 31.6039 5.90441 32.2251 9.86677 32.4728C15.8954 32.8478 25.1559 32.2641 25.3751 29.4887C25.3751 29.4883 24.9539 30.5402 20.3923 31.3754ZM7.67437 37.2058C6.55033 37.2058 5.59099 37.4762 4.7901 37.8202L5.03306 38.7645C5.6634 38.5391 6.4417 38.33 7.2422 38.33C8.35183 38.33 8.7914 38.7645 8.7914 39.6637V40.4122H8.32418C5.62953 40.4122 4.41361 41.3914 4.41361 42.9213C4.41361 44.2391 5.21527 44.9694 6.72359 44.9694C7.69306 44.9694 8.41763 44.6493 9.09392 44.0793L9.21695 44.9577H10.3488V39.4683C10.3488 38.105 9.59968 37.2058 7.67437 37.2058ZM8.7914 43.0777C8.40205 43.5573 7.66502 43.827 7.12539 43.827C6.35722 43.827 5.96203 43.3077 5.96203 42.5883C5.96203 41.8096 6.43002 41.1698 8.21789 41.1698H8.7914V43.0777ZM14.8695 43.3217L14.5444 41.955L13.082 37.3819H11.3728L13.7287 44.9577H15.6855C16.8084 42.3062 17.6101 39.6546 18.0551 37.3819H16.3922C16.1309 39.2758 15.6073 41.3304 14.8695 43.3217ZM22.035 37.2058C20.9101 37.2058 19.9282 37.4762 19.1277 37.8202L19.3598 38.7645C19.9909 38.5391 20.8089 38.33 21.6094 38.33C22.7175 38.33 23.1971 38.7645 23.1971 39.6637V40.4122H22.6412C19.9457 40.4122 18.7302 41.3914 18.7302 42.9213C18.7302 44.2391 19.5307 44.9694 21.039 44.9694C22.0093 44.9694 22.7323 44.6493 23.4105 44.0793L23.5343 44.9577H24.7545V39.4683C24.7545 38.105 23.9587 37.2058 22.035 37.2058ZM21.4856 43.8202C20.7166 43.8202 20.2996 43.3039 20.2996 42.5849C20.2996 41.8065 20.747 41.1698 22.5329 41.1698H23.1971V43.0637H23.1711C22.6007 43.4425 22.0237 43.8202 21.4856 43.8202ZM1.7832 43.205C1.7832 44.444 1.60994 44.9618 1.40203 45.3645C1.16258 45.8164 0.602705 46.302 2.97046e-08 46.6028L0.752992 47.491C1.54414 47.2073 2.28818 46.7039 2.73553 46.0679C3.18328 45.4152 3.34058 44.7456 3.34058 43.088V34.7304H1.7832V43.205Z" fill="#B4BEC8"/>
</svg>
