<svg width="36" height="35" viewBox="0 0 36 35" fill="none" xmlns="http://www.w3.org/2000/svg">
<path d="M0 0V34.8267H35.9481V0H0ZM19.0148 29.676C18.4842 30.7205 17.4714 31.4068 16.2977 31.738C14.4943 32.1392 12.7693 31.9105 11.4861 31.1644C10.6274 30.6539 9.95677 29.8682 9.50152 28.963L12.2393 27.3387C12.2632 27.3485 12.3351 27.4744 12.4311 27.6371C12.7803 28.2038 13.0814 28.605 13.6732 28.8867C14.2547 29.0789 15.5313 29.2018 16.0242 28.2105C16.3253 27.7062 16.2296 26.0852 16.2296 24.2918C16.2293 21.4736 16.2428 18.6671 16.2428 15.881H19.6101C19.6101 18.9457 19.6274 21.8483 19.6101 24.839C19.6173 26.6723 19.7815 28.3066 19.0148 29.676ZM32.984 28.7544C31.8135 32.6332 25.2876 32.7591 22.6798 30.1965C22.1288 29.5933 21.7834 29.2781 21.4547 28.5819C22.8406 27.8096 22.8406 27.8096 24.1891 27.0537C24.9215 28.1445 25.5988 28.7443 26.8173 28.9898C28.4703 29.1854 30.1334 28.6351 29.7604 26.9342C29.3771 25.545 26.3756 25.207 24.3328 23.7215C22.2591 22.3721 21.7731 19.0934 23.4773 17.22C24.0453 16.5271 25.0138 16.01 26.0302 15.7615L27.0908 15.6286C29.1272 15.5887 30.4 16.1097 31.3344 17.1205C31.5944 17.3758 31.8066 17.651 32.2035 18.2475C31.1187 18.9173 31.1222 18.9109 29.5683 19.8855C29.2365 19.1929 28.6857 18.7582 28.1037 18.5693C27.2001 18.3041 26.0607 18.5925 25.8243 19.5175C25.7423 19.8025 25.7593 20.0677 25.8895 20.5386C26.2556 21.3474 27.4842 21.699 28.5862 22.1896C31.7586 23.4362 32.8298 24.7727 33.0933 26.3636C33.3469 27.7332 33.032 28.6217 32.984 28.7544Z" fill="#B4BEC8"/>
</svg>
