<svg width="57" height="28" viewBox="0 0 57 28" fill="none" xmlns="http://www.w3.org/2000/svg">
<path d="M28.0184 6.4911e-07C12.5448 6.4911e-07 -4.63607e-08 6.14261 -4.63607e-08 13.7196C-4.63607e-08 21.2966 12.5448 27.4392 28.0184 27.4392C43.4919 27.4392 56.0368 21.2966 56.0368 13.7196C56.0368 6.14261 43.4919 6.4911e-07 28.0184 6.4911e-07ZM20.7278 16.3926C20.0592 16.997 19.3167 17.2465 18.499 17.5035C17.6813 17.7609 16.6407 17.7078 15.3754 17.7078H12.5077L11.7129 22.139H8.36461L11.3525 7.07273H17.7914C19.7285 7.07273 21.1415 7.61113 22.0298 8.59354C22.9182 9.57595 23.1851 10.9705 22.831 12.731C22.6847 13.4564 22.4385 14.1308 22.0908 14.7317C21.7428 15.333 21.2883 15.8945 20.7278 16.3926ZM30.5013 17.7078L31.8226 11.3179C31.973 10.5699 31.9179 10.0142 31.657 9.74257C31.3956 9.47049 30.8398 9.28836 29.99 9.28836H27.3346L25.6235 17.7078H22.3013L25.2892 3.0846H28.6114L27.8171 7.07273H30.7765C32.6389 7.07273 33.923 7.43388 34.6297 8.06135C35.3364 8.68881 35.5483 9.54848 35.2658 10.9541L33.8758 17.7078H30.5013ZM48.9645 12.7545C48.8187 13.4799 48.5719 14.1428 48.2248 14.7432C47.8772 15.3446 47.4231 15.8945 46.8622 16.3926C46.1936 16.997 45.4506 17.2465 44.6334 17.5035C43.8162 17.7609 42.7747 17.7078 41.5093 17.7078H38.6416L37.8473 22.139H34.499L37.4864 7.07273H43.9258C45.8629 7.07273 47.2759 7.61113 48.1638 8.59354C49.0512 9.57595 49.3186 10.9944 48.9645 12.7545ZM42.6568 9.28836H40.3633L39.1126 15.4921H41.1498C42.499 15.4921 43.5052 15.3636 44.1656 14.8717C44.8269 14.3808 45.2722 13.6186 45.5038 12.4696C45.7258 11.3657 45.6249 10.5047 45.2012 10.051C44.7769 9.59722 43.929 9.28836 42.6568 9.28836ZM16.5228 9.28836H14.2289L12.9782 15.4921H15.0149C16.3646 15.4921 17.3704 15.3636 18.0312 14.8717C18.6921 14.3808 19.1378 13.6186 19.369 12.4696C19.5909 11.3657 19.4901 10.5047 19.0663 10.051C18.6425 9.59722 17.795 9.28836 16.5228 9.28836Z" fill="#B4BEC8"/>
</svg>
