<svg width="35" height="48" viewBox="0 0 35 48" fill="none" xmlns="http://www.w3.org/2000/svg">
<path d="M7.88491 25.2485V21.3868C7.88491 18.7152 10.3619 16.4363 13.2161 16.4363H21.6222C23.9621 16.4363 25.4125 14.5052 25.4125 12.2455V4.53782C25.4125 2.34396 23.6972 0.696451 21.413 0.330552C19.9674 0.0991345 18.5724 -0.00622934 17.1335 0.000284055C15.6951 0.00679745 14.21 0.124422 13.001 0.330552C9.43929 0.935148 8.68162 2.20181 8.68162 4.53782V7.62403H17.0471V8.77345H5.84971C3.40381 8.77345 1.26226 10.1259 0.592224 12.8164C-0.180186 15.8995 -0.214445 17.8746 0.592224 21.0941C1.19055 23.4903 2.61945 25.2485 5.06495 25.2485H7.88491ZM12.6867 5.56579C11.8143 5.56579 11.1076 4.87805 11.1076 4.02825C11.1076 3.17423 11.8139 2.48074 12.6867 2.48074C13.5559 2.48074 14.2658 3.17461 14.2658 4.02825C14.2658 4.87805 13.5559 5.56579 12.6867 5.56579ZM34.2461 12.8164C33.6418 10.4738 32.4869 8.77345 30.0382 8.77345H26.6076V12.2455C26.6076 15.0321 24.423 17.5857 21.6222 17.5857H13.2161C10.9136 17.5857 8.68162 19.2727 8.68162 21.4911V29.1987C8.68162 31.3922 10.828 32.6826 13.0532 33.3113C15.7166 34.065 18.1445 34.201 21.3318 33.3113C23.4502 32.7213 25.4125 31.5343 25.4125 29.1987V26.3979H17.0471V25.2485H30.0378C32.4837 25.2485 33.3952 23.5566 34.2457 21.0941C35.1244 18.5585 35.087 16.0692 34.2461 12.8164ZM22.1516 28.17C23.024 28.17 23.7311 28.8577 23.7311 29.7083C23.7311 30.5615 23.0244 31.255 22.1516 31.255C21.2824 31.255 20.5729 30.5612 20.5729 29.7083C20.5729 28.8577 21.2824 28.17 22.1516 28.17Z" fill="#B4BEC8"/>
<path d="M5.61479 41.7336C5.61479 40.2942 5.18776 39.5551 4.33448 39.5149C3.99468 39.4992 3.66325 39.5513 3.34059 39.6716C3.08325 39.7601 2.90957 39.8482 2.81834 39.9367V43.3727C3.36449 43.7022 3.84929 43.8555 4.27194 43.8313C5.16704 43.7746 5.61479 43.0762 5.61479 41.7336ZM6.66765 41.7938C6.66765 42.5252 6.48958 43.1321 6.13066 43.6149C5.73111 44.1616 5.177 44.4425 4.46873 44.4582C3.93493 44.4746 3.3848 44.3133 2.81874 43.9762V47.0992L1.90332 46.785V39.8528C2.0535 39.6758 2.2467 39.5237 2.48133 39.3946C3.02628 39.0888 3.68875 38.9321 4.46793 38.9241L4.48108 38.9363C5.19333 38.9279 5.74227 39.2091 6.12788 39.7796C6.48719 40.303 6.66765 40.9739 6.66765 41.7938Z" fill="#B4BEC8"/>
<path d="M12.2642 43.8432C12.2642 44.824 12.1618 45.5034 11.9575 45.8807C11.7519 46.2585 11.3611 46.5601 10.7843 46.7846C10.3167 46.962 9.81075 47.0581 9.26739 47.0746L9.11602 46.5198C9.66814 46.4478 10.0569 46.375 10.2824 46.303C10.7262 46.1585 11.0305 45.9371 11.1978 45.6401C11.3321 45.3984 11.3982 44.9371 11.3982 44.2539V44.0244C10.7724 44.298 10.1159 44.4336 9.42992 44.4336C8.97898 44.4336 8.58142 44.298 8.23884 44.0244C7.85403 43.7267 7.66162 43.3486 7.66162 42.8911V39.226L8.57744 38.9244V42.6141C8.57744 43.008 8.70969 43.3114 8.9742 43.5244C9.23871 43.7375 9.58129 43.8394 10.0012 43.8321C10.421 43.8237 10.8708 43.667 11.3484 43.3616V39.0574H12.2642V43.8432Z" fill="#B4BEC8"/>
<path d="M15.8383 44.4099C15.7291 44.4183 15.6291 44.4221 15.5367 44.4221C15.0189 44.4221 14.6149 44.3037 14.3265 44.0658C14.0389 43.8275 13.8947 43.4991 13.8947 43.08V39.611H13.2677V39.057H13.8947V37.5857L14.8093 37.2727V39.057H15.8383V39.611H14.8093V43.0558C14.8093 43.3861 14.9014 43.6206 15.0858 43.757C15.2439 43.87 15.4957 43.9344 15.8383 43.9509V44.4099Z" fill="#B4BEC8"/>
<path d="M21.6253 44.7295H20.7099V41.3299C20.7099 40.9843 20.6258 40.6862 20.4585 40.4375C20.2653 40.1563 19.9968 40.0153 19.6523 40.0153C19.2324 40.0153 18.7074 40.2283 18.0772 40.6544V44.7295H17.1617V36.6038L18.0772 36.3261V40.0268C18.6623 39.6176 19.3013 39.4123 19.9956 39.4123C20.4808 39.4123 20.8732 39.5693 21.174 39.8827C21.4755 40.1958 21.6257 40.5862 21.6257 41.0525V44.7295H21.6253Z" fill="#B4BEC8"/>
<path d="M26.2496 41.5953C26.2496 41.0421 26.1405 40.5854 25.923 40.2241C25.6644 39.7838 25.2629 39.5513 24.7195 39.5275C23.7157 39.5834 23.2146 40.275 23.2146 41.6011C23.2146 42.2091 23.3189 42.7168 23.5293 43.1244C23.7977 43.644 24.2005 43.8999 24.7375 43.8915C25.7457 43.8838 26.2496 43.1187 26.2496 41.5953ZM27.2527 41.6011C27.2527 42.3884 27.0431 43.0436 26.6253 43.567C26.1656 44.1524 25.5302 44.4467 24.7199 44.4467C23.9165 44.4467 23.2902 44.1524 22.8385 43.567C22.429 43.0436 22.2242 42.3884 22.2242 41.6011C22.2242 40.8608 22.4457 40.2386 22.8887 39.7317C23.3564 39.1942 23.9714 38.9244 24.7319 38.9244C25.4923 38.9244 26.1114 39.1942 26.5882 39.7317C27.0308 40.2386 27.2527 40.8608 27.2527 41.6011Z" fill="#B4BEC8"/>
<path d="M32.5024 44.3375H31.5866V40.7451C31.5866 40.3513 31.4631 40.0436 31.2169 39.8222C30.9703 39.6015 30.6421 39.4946 30.2322 39.503C29.7976 39.511 29.3837 39.6478 28.9909 39.9126V44.3375H28.0751V39.8038C28.6021 39.4348 29.0869 39.1938 29.5299 39.0812C29.9477 38.9762 30.3162 38.9241 30.6337 38.9241C30.8508 38.9241 31.0556 38.9444 31.248 38.9846C31.6077 39.0647 31.9001 39.213 32.1255 39.4306C32.3769 39.6716 32.5024 39.9609 32.5024 40.2992V44.3375Z" fill="#B4BEC8"/>
</svg>
