<svg width="35" height="46" viewBox="0 0 35 46" fill="none" xmlns="http://www.w3.org/2000/svg">
<path d="M24.8951 19.3629C19.8078 22.495 14.767 25.5988 9.59303 28.7835C17.3413 29.7943 24.9514 30.7867 32.7123 31.799C30.0686 27.5929 27.4927 23.4952 24.8951 19.3629ZM34.9 5.50346C34.2168 6.48303 33.5325 7.46222 32.8505 8.44253C30.5077 11.8097 28.1656 15.1765 25.8255 18.5448C25.6952 18.7328 25.5263 18.8818 25.7098 19.1707C27.9715 22.738 30.2147 26.3166 32.4634 29.891C32.8182 30.4556 33.1773 31.018 33.6364 31.5597L35 5.53168L34.9 5.50346ZM4.03047 16.6263C4.13638 16.7222 4.40059 16.7775 4.52305 16.7199C6.69224 15.7012 8.87521 14.7055 10.9972 13.6029C11.6886 13.244 12.2202 12.5997 12.8167 12.0775C14.7906 10.3482 16.7609 8.6152 18.7313 6.88177C18.8522 6.77532 18.9943 6.67262 19.0667 6.53833C19.7743 5.21682 20.4693 3.88929 21.1895 2.52264C20.3307 2.2153 19.5168 1.91323 18.6931 1.63863C18.5812 1.60138 18.4056 1.67549 18.2836 1.74019C16.3766 2.75813 14.4338 3.72151 12.5871 4.83161C11.663 5.38685 10.9101 6.20503 10.0919 6.91826C8.77402 8.06786 7.45691 9.22009 6.15752 10.39C5.8126 10.7003 5.49838 11.0551 5.23023 11.4282C4.34114 12.6644 3.4796 13.9182 2.57751 15.2081C3.08231 15.7069 3.54024 16.1831 4.03047 16.6263ZM11.9579 14.9361C10.8794 19.2911 9.80605 23.6213 8.69802 28.094C13.8952 24.895 18.9722 21.7697 24.0154 18.6651C20.0019 17.4237 16.001 16.1865 11.9579 14.9361ZM20.5563 7.62284L24.9742 17.8895C27.8581 13.7511 30.6845 9.69445 33.575 5.54522C29.1843 6.24604 24.8982 6.92993 20.5563 7.62284ZM12.139 14.0453C16.0931 15.272 19.9688 16.4739 23.9564 17.7104C22.4755 14.2635 21.0454 10.9373 19.5853 7.54046L12.139 14.0453ZM4.19387 19.1658L0.057882 28.6112C2.70824 28.5364 5.27788 28.4638 7.93493 28.3889C6.68752 25.3133 5.46452 22.2979 4.19387 19.1658ZM8.02864 26.1984L8.12629 26.1781C9.0717 22.4209 10.0313 18.6896 10.9972 14.786C8.84332 15.8551 6.78871 16.8753 4.6774 17.9237C5.75432 20.5991 6.90329 23.4204 8.02864 26.1984ZM31.9854 4.93619C30.7274 4.61794 29.4705 4.29819 28.2113 3.98221C26.4028 3.52816 24.5927 3.07901 22.785 2.62045C22.5593 2.56327 22.3955 2.52603 22.2628 2.78596C21.6242 4.03638 20.965 5.27776 20.3161 6.52328C20.296 6.56203 20.3 6.61243 20.2846 6.70836C24.2017 6.14146 28.0928 5.57795 31.9831 5.01481L31.9854 4.93619ZM24.6884 2.09154C28.0664 2.98459 31.4444 3.87725 34.9405 4.80114L33.2466 0.189969C30.3761 0.798247 27.5399 1.399 24.7037 1.99975L24.6884 2.09154ZM27.7919 31.9442L19.381 30.8472C15.8872 30.3917 12.3997 29.8902 8.89805 29.5047C7.6282 29.3651 6.32448 29.4937 5.0369 29.5144C3.97888 29.5317 2.92087 29.5701 1.86324 29.6021C1.75417 29.6051 1.6455 29.6262 1.53722 29.7379C10.2825 30.5106 19.0286 31.2828 27.7734 32.0559L27.7919 31.9442ZM0.230346 25.7282C1.35806 23.23 2.47947 20.73 3.61112 18.234C3.72452 17.9831 3.71625 17.8135 3.49457 17.6122C3.02088 17.1815 2.58145 16.7177 2.06366 16.2038L-2.88394e-07 25.9359L0.0759945 25.9705C0.128364 25.89 0.191758 25.8147 0.230346 25.7282ZM22.4428 1.4321C24.3434 0.963388 26.2717 0.597745 28.1885 0.188841C28.3121 0.162132 28.4334 0.12301 28.5554 0.0895301L28.5369 -2.94175e-08L20.3012 1.05818C21.0749 1.38132 21.6706 1.62245 22.4428 1.4321ZM4.59983 39.965V43.1802H2.73974V34.8001H5.2956C6.4871 34.8001 7.3691 35.0074 7.94123 35.4219C8.51335 35.8365 8.79961 36.4662 8.79961 37.3103C8.79961 37.8035 8.65747 38.2421 8.37318 38.6258C8.08928 39.0099 7.68765 39.3112 7.16711 39.529L9.74738 43.1798H7.68332L5.58973 39.9646H4.59983V39.965ZM4.59983 38.5205H5.19991C5.7874 38.5205 6.22171 38.4264 6.50167 38.2395C6.78123 38.0521 6.92141 37.758 6.92141 37.357C6.92141 36.9594 6.77847 36.6768 6.49221 36.5087C6.20635 36.3405 5.76338 36.2563 5.16369 36.2563H4.59944V38.5205H4.59983ZM15.4588 43.1802L15.2131 42.3605H15.117C14.9209 42.6588 14.6429 42.8886 14.2834 43.0512C13.9231 43.2137 13.5128 43.2945 13.0533 43.2945C12.265 43.2945 11.6713 43.0933 11.2712 42.69C10.8712 42.2868 10.6715 41.7071 10.6715 40.9506V36.772H12.5013V40.515C12.5013 40.9773 12.5875 41.3241 12.7596 41.5555C12.9313 41.7868 13.2049 41.9019 13.581 41.9019C14.0932 41.9019 14.463 41.7383 14.691 41.4122C14.9189 41.0853 15.0331 40.5439 15.0331 39.7874V36.7724H16.8629V43.1806H15.4588V43.1802ZM22.5145 36.6513C23.3063 36.6513 23.9265 36.9469 24.3749 37.5372C24.8226 38.1274 25.0463 38.9365 25.0463 39.9646C25.0463 41.0228 24.8152 41.8425 24.3537 42.4229C23.8914 43.0041 23.2626 43.2942 22.4664 43.2942C21.6785 43.2942 21.0607 43.0207 20.6126 42.4741H20.4866L20.1811 43.1794H18.7829V34.2614H20.6126V36.3364C20.6126 36.6001 20.5882 37.0222 20.5402 37.6034H20.6126C21.0402 36.9691 21.6746 36.6513 22.5145 36.6513ZM21.9262 38.0503C21.4746 38.0503 21.1446 38.1831 20.9367 38.4486C20.7288 38.7146 20.6201 39.1528 20.6126 39.7645V39.9533C20.6126 40.6414 20.7193 41.1342 20.9331 41.4325C21.1473 41.7304 21.4864 41.8794 21.9506 41.8794C22.3262 41.8794 22.6251 41.7138 22.8472 41.3836C23.0693 41.0533 23.1803 40.5725 23.1803 39.9421C23.1803 39.3116 23.0681 38.8384 22.844 38.5231C22.6204 38.2079 22.3144 38.0503 21.9262 38.0503ZM25.4782 36.772H27.4821L28.748 40.3773C28.8559 40.6906 28.9303 41.0612 28.9697 41.4893H29.0059C29.0496 41.0958 29.1354 40.7249 29.2634 40.3773L30.5053 36.772H32.467L29.6292 43.9999C29.3693 44.6683 28.9984 45.169 28.5168 45.5016C28.0345 45.8341 27.4718 46 26.8276 46C26.5115 46 26.2016 45.9677 25.898 45.9026V44.5156C26.1181 44.5649 26.3579 44.5897 26.6178 44.5897C26.9414 44.5897 27.2245 44.4953 27.4667 44.3061C27.7089 44.1172 27.8979 43.8317 28.0333 43.4495L28.1412 43.1339L25.4782 36.772Z" fill="#B4BEC8"/>
</svg>
