<svg width="44" height="32" viewBox="0 0 44 32" fill="none" xmlns="http://www.w3.org/2000/svg">
<path fill-rule="evenodd" clip-rule="evenodd" d="M-6.25611e-09 13.2021C-6.25611e-09 13.4391 0.0714695 13.5956 0.11152 13.7477C0.372539 14.7366 0.933592 15.5852 1.59926 16.3594C2.54735 17.4626 3.70847 18.3507 4.89791 19.1858C5.92955 19.9101 6.98226 20.6181 8.01805 21.3369C8.19586 21.4604 8.364 21.6023 8.55701 21.7537C8.39093 21.8414 8.25283 21.9186 8.1092 21.9897C6.7423 22.6667 5.42719 23.4257 4.21497 24.3452C3.4844 24.8995 2.77799 25.4885 2.27908 26.2582C1.47635 27.4963 1.19219 28.8153 1.79054 30.2237C1.96524 30.635 2.23178 30.9904 2.60777 31.253C2.72965 31.338 2.86638 31.4223 3.00897 31.4553C3.37426 31.5393 3.74645 31.5942 4.11623 31.6607L5.16341 31.66C6.32143 31.5592 7.37552 31.1718 8.3281 30.5298C9.81687 29.5264 10.8199 28.1811 11.2511 26.4545C11.5646 25.1995 11.5774 23.9433 11.2079 22.694C11.1738 22.5781 11.1306 22.4644 11.0857 22.3522C11.0408 22.2399 10.988 22.1306 10.9259 21.9907L13.2999 20.6576L13.3355 20.6872C13.2923 20.8251 13.2464 20.9627 13.2074 21.1019C12.9253 22.1081 12.7378 23.1317 12.8051 24.1759C12.8769 25.2886 13.1949 26.3301 13.862 27.2596C14.4013 28.0115 15.6863 28.0395 16.2595 27.2849C16.4628 27.0169 16.66 26.7367 16.8081 26.4376C17.1952 25.6571 17.5535 24.8627 17.9233 24.0737L17.9879 23.9294C17.9613 24.303 17.9302 24.6311 17.9161 24.9595C17.894 25.4723 17.9247 25.9821 18.1042 26.47C18.2579 26.8874 18.5192 27.1993 19.0088 27.2542C19.3437 27.2917 19.6106 27.142 19.8568 26.9521C20.2414 26.6558 20.5539 26.2896 20.7859 25.8735C21.4422 24.6965 22.1162 23.5265 22.7111 22.3198C23.3546 21.0146 23.9174 19.6713 24.5151 18.3439L24.6138 18.1086C24.755 18.6504 24.8534 19.1811 25.0347 19.6835C25.2453 20.2664 25.506 20.8356 25.7898 21.3889C25.9241 21.6502 25.9086 21.8198 25.7225 22.0389C24.9436 22.956 24.1781 23.8842 23.412 24.8115C23.2424 25.0161 23.0736 25.2245 22.9324 25.448C22.8471 25.5839 22.7905 25.7495 22.7667 25.9079C22.7207 26.2107 22.9124 26.5027 23.2442 26.5725C23.5473 26.6362 23.8701 26.6598 24.1791 26.6376C25.2484 26.5607 26.2193 26.1942 27.0776 25.5731C28.1897 24.7686 28.5467 23.6708 28.2774 22.3697C28.2046 22.0167 28.0758 21.6734 27.9504 21.3332C27.8942 21.1798 27.8904 21.0723 27.9929 20.9293C28.882 19.6896 29.6415 18.3743 30.348 17.0286C30.3759 16.9757 30.4046 16.9228 30.4536 16.8661C30.6825 18.0293 31.0271 19.1504 31.6444 20.1677C31.3295 20.464 31.0178 20.7327 30.7357 21.0288C30.1146 21.6809 29.5759 22.3889 29.2949 23.2524C29.1741 23.6246 29.0812 24.0029 29.135 24.4005C29.2186 25.0178 29.7365 25.419 30.3583 25.2784C31.689 24.9777 32.8377 24.3654 33.677 23.2807C34.2418 22.5504 34.2933 21.7358 34.0568 20.8824C33.9919 20.6505 33.9149 20.4222 33.832 20.1562C34.1604 20.0567 34.4804 19.9374 34.8115 19.8635C36.5306 19.4805 38.231 19.5473 39.8876 20.1535C40.8547 20.5075 41.636 21.0999 42.0993 22.0319C42.6652 23.1711 42.3524 24.2521 41.2528 24.9723C41.1502 25.0394 41.0328 25.0923 40.9479 25.1763C40.8958 25.2279 40.8643 25.331 40.8771 25.4022C40.8844 25.4436 40.9966 25.4956 41.0611 25.4949C41.4226 25.4922 41.7158 25.3071 41.9971 25.1169C42.7022 24.6405 43.2166 23.9996 43.3274 23.1556L43.3492 23.0922L43.3226 22.5427C43.3119 22.511 43.3305 22.4796 43.3281 22.4557C43.1783 21.2267 42.5061 20.2735 41.5283 19.5264C40.3958 18.6615 39.0586 18.3055 37.6444 18.2492C36.4919 18.2033 35.3591 18.3706 34.2729 18.7559C33.9632 18.8655 33.6563 18.9953 33.3448 19.1177C33.3031 19.0439 33.2582 18.9731 33.2212 18.8999C32.9015 18.2606 32.5141 17.6497 32.4285 16.9167C32.3677 16.3961 32.2932 15.8762 32.4199 15.3613C32.5418 14.866 32.7006 14.3792 32.8501 13.8906C32.9271 13.6391 32.8729 13.4982 32.627 13.3849C32.5414 13.3454 32.4482 13.311 32.3557 13.2979C31.7515 13.2122 31.1555 13.2611 30.5703 13.4273C30.3631 13.4864 30.2126 13.5996 30.1667 13.8235C30.1405 13.952 30.0869 14.075 30.0496 14.2018C29.8967 14.7288 29.7883 15.2659 29.5411 15.768C28.9217 17.0273 28.2146 18.2391 27.4909 19.4421C27.4125 19.5719 27.33 19.6993 27.2313 19.8568C26.9771 19.3375 26.7061 18.8716 26.6239 18.3254C26.5311 17.7077 26.4579 17.091 26.6153 16.478C26.7324 16.0208 26.8853 15.5721 27.0262 15.1209C27.0928 14.9065 27.0621 14.7939 26.8632 14.6809C26.7627 14.624 26.6491 14.5734 26.5359 14.5569C25.9092 14.4662 25.2919 14.5137 24.6874 14.7045C24.4999 14.7639 24.4015 14.8822 24.3442 15.071C24.1757 15.628 24.0321 16.1985 23.7955 16.7282C22.8378 18.8726 21.8524 21.0059 20.8681 23.1388C20.6626 23.5842 20.422 24.0141 20.1903 24.4477C20.1316 24.5576 20.046 24.6543 19.9728 24.7575C19.9141 24.6897 19.8913 24.6432 19.8917 24.5967C19.8934 24.3226 19.8599 24.0404 19.9134 23.7753C20.0753 22.9736 20.2618 22.1762 20.4582 21.3818C20.6205 20.7257 20.8094 20.0756 20.9892 19.4239C21.0497 19.2057 21.0507 19.0017 20.8902 18.8183C20.6205 18.5112 20.057 18.4437 19.7228 18.6804L19.5751 18.762L19.6037 18.5294C19.6741 18.0307 19.6883 17.5337 19.5481 17.0425C19.3734 16.4302 18.926 16.0778 18.2755 16.0974C17.9723 16.1065 17.654 16.1571 17.3733 16.2649C16.1928 16.7167 15.2852 17.5168 14.5125 18.4795C14.4424 18.5668 14.3498 18.6464 14.2511 18.7C13.2522 19.2408 12.2503 19.7749 11.2487 20.3109L10.1338 20.9074C9.83483 20.6289 9.5631 20.3399 9.25478 20.0948C8.31325 19.345 7.35653 18.6137 6.40843 17.8722C5.56806 17.2151 4.75393 16.5306 4.13108 15.6604C3.66773 15.013 3.36908 14.3047 3.34042 13.5042C3.30417 12.4843 3.60041 11.5524 4.13211 10.6848C4.81228 9.57487 5.74 8.68408 6.75991 7.87724C7.83886 7.0242 9.00585 6.29997 10.2153 5.63878C11.9074 4.71393 13.6479 3.89529 15.5141 3.35481C17.4275 2.80051 19.3689 2.48324 21.3715 2.70442C22.1587 2.79141 22.9231 2.96741 23.625 3.34335C24.1626 3.63095 24.6035 4.00757 24.8085 4.59626C25.0109 5.17552 25.0047 5.76252 24.8645 6.35088C24.5796 7.54243 23.9116 8.5246 23.0708 9.40224C21.6919 10.8409 20.0097 11.8204 18.116 12.4674C17.0232 12.8407 15.899 13.075 14.7445 13.1698C13.8022 13.247 12.8797 13.1654 11.9875 12.8454C11.3968 12.6333 10.8824 12.309 10.4687 11.8383C10.3948 11.754 10.3002 11.6626 10.1625 11.7415C10.0275 11.8191 10.0037 11.9445 10.0489 12.0716C10.1245 12.2827 10.1942 12.5025 10.312 12.6913C10.6079 13.165 11.0394 13.5086 11.5145 13.8033C12.4271 14.3701 13.447 14.5606 14.5045 14.6047C16.1093 14.6725 17.6751 14.4385 19.2187 14.0181C21.4226 13.4179 23.3388 12.3579 24.8755 10.6855C26.1551 9.293 27.069 7.72147 27.2648 5.82389C27.3604 4.89769 27.2585 3.99037 26.8145 3.14543C26.3329 2.23002 25.5671 1.54928 24.6515 1.08028C23.318 0.39752 21.879 0 20.3937 0H18.9056C17.1068 0 15.3677 0.503391 13.6773 1.10389C12.3977 1.55872 11.143 2.09549 9.92494 2.68958C7.27228 3.98397 4.80192 5.54471 2.77281 7.69078C1.76188 8.75994 0.905971 9.93969 0.413626 11.3288C0.269651 11.7354 0.132926 12.1714 0.0300379 12.5918L-6.25611e-09 13.2021ZM9.64182 24.7342C9.52685 26.2377 8.82907 27.4565 7.68867 28.4438C7.04717 28.9987 6.31141 29.3939 5.45447 29.5328C5.14373 29.583 4.82575 29.5952 4.52433 29.4694C4.09448 29.29 3.99815 28.9175 3.98986 28.5206C3.97709 27.8881 4.20393 27.3163 4.51501 26.7721C4.92104 26.0627 5.51627 25.5219 6.1519 25.0168C7.15317 24.2207 8.23936 23.5471 9.3518 22.9112L9.4357 22.8775C9.60764 23.4979 9.68947 24.1105 9.64182 24.7342ZM18.328 18.2003C18.2468 18.6804 18.1453 19.1609 18.0017 19.6262C17.5052 21.2368 16.8675 22.7976 16.178 24.3374C16.0506 24.6223 15.8652 24.8823 15.704 25.1523C15.6791 25.1941 15.6422 25.2302 15.6062 25.2649C15.4067 25.4575 15.2175 25.4474 15.1167 25.1955C14.9993 24.9028 14.9271 24.5896 14.865 24.2797C14.8232 24.0717 14.8332 23.8532 14.8201 23.6401C14.8335 22.1249 15.3069 20.7479 16.11 19.466C16.4411 18.9373 16.8015 18.4336 17.3522 18.0991C17.5214 17.9963 17.7113 17.9137 17.9029 17.8611C18.1964 17.7805 18.3766 17.913 18.328 18.2003ZM24.2541 25.5735L26.384 23.1448C26.4727 24.0468 24.9028 25.8472 24.2541 25.5735ZM31.0568 23.9392C30.9062 24.0235 30.7422 24.0842 30.5879 24.1621C30.4467 24.2336 30.4001 24.1614 30.3959 24.0427C30.3932 23.9621 30.4053 23.8778 30.4281 23.7996C30.7157 22.809 31.245 21.9634 32.0325 21.2756L32.0877 21.2479C32.4623 22.2712 32.0294 23.395 31.0568 23.9392Z" fill="#B4BEC8"/>
</svg>
